HIERARCHY
ROOT Hips
{
    OFFSET 0.000000 0.000000 0.000000
    CHANNELS 6 Xposition Yposition Zposition Zrotation Xrotation Yrotation
    JOINT Spine
    {
        OFFSET -0.000000 14.517291 0.000000
        CHANNELS 3 Zrotation Xrotation Yrotation
        JOINT Spine1
        {
            OFFSET -0.000000 37.558300 0.000000
            CHANNELS 3 Zrotation Xrotation Yrotation
            JOINT Neck
            {
                OFFSET -0.000000 37.404057 3.400369
                CHANNELS 3 Zrotation Xrotation Yrotation
                JOINT Head
                {
                    OFFSET -0.000000 24.785618 -3.540803
                    CHANNELS 3 Zrotation Xrotation Yrotation
                    End Site
                    {
                        OFFSET -0.000000 35.408028 0.000000
                    }
                }
            }
            JOINT LeftShoulder
            {
                OFFSET 6.992933 33.973492 -0.192664
                CHANNELS 3 Zrotation Xrotation Yrotation
                JOINT LeftArm
                {
                    OFFSET 21.527611 0.000000 0.000000
                    CHANNELS 3 Zrotation Xrotation Yrotation
                    JOINT LeftForeArm
                    {
                        OFFSET 56.353916 0.000000 0.000000
                        CHANNELS 3 Zrotation Xrotation Yrotation
                        JOINT LeftHand
                        {
                            OFFSET 47.774071 0.000000 0.000000
                            CHANNELS 3 Zrotation Xrotation Yrotation
                            End Site
                            {
                                OFFSET 26.556021 0.000000 0.000000
                            }
                        }
                    }
                }
            }
            JOINT RightShoulder
            {
                OFFSET -7.065357 33.973492 -0.192664
                CHANNELS 3 Zrotation Xrotation Yrotation
                JOINT RightArm
                {
                    OFFSET -21.527611 0.000000 0.000000
                    CHANNELS 3 Zrotation Xrotation Yrotation
                    JOINT RightForeArm
                    {
                        OFFSET -56.353916 0.000000 0.000000
                        CHANNELS 3 Zrotation Xrotation Yrotation
                        JOINT RightHand
                        {
                            OFFSET -47.774071 0.000000 0.000000
                            CHANNELS 3 Zrotation Xrotation Yrotation
                            End Site
                            {
                                OFFSET -26.556021 0.000000 0.000000
                            }
                        }
                    }
                }
            }
        }
    }
    JOINT LeftUpLeg
    {
        OFFSET 17.704014 0.000000 0.000000
        CHANNELS 3 Zrotation Xrotation Yrotation
        JOINT LeftLeg
        {
            OFFSET -0.000000 -81.181816 0.000000
            CHANNELS 3 Zrotation Xrotation Yrotation
            JOINT LeftFoot
            {
                OFFSET -0.000000 -62.821102 0.000000
                CHANNELS 3 Zrotation Xrotation Yrotation
                JOINT LeftToeBase
                {
                    OFFSET -0.000000 -11.507608 26.556021
                    CHANNELS 3 Zrotation Xrotation Yrotation
                    End Site
                    {
                        OFFSET -0.000000 0.000000 7.081605
                    }
                }
            }
        }
    }
    JOINT RightUpLeg
    {
        OFFSET -17.704014 0.000000 0.000000
        CHANNELS 3 Zrotation Xrotation Yrotation
        JOINT RightLeg
        {
            OFFSET -0.000000 -81.181816 0.000000
            CHANNELS 3 Zrotation Xrotation Yrotation
            JOINT RightFoot
            {
                OFFSET -0.000000 -62.821102 0.000000
                CHANNELS 3 Zrotation Xrotation Yrotation
                JOINT RightToeBase
                {
                    OFFSET -0.000000 -11.507608 26.556021
                    CHANNELS 3 Zrotation Xrotation Yrotation
                    End Site
                    {
                        OFFSET -0.000000 0.000000 7.081605
                    }
                }
            }
        }
    }
}
MOTION
Frames:    4
Frame Time:    0.008333
28.316772    159.076599    -73.352585    3.562342    12.593393    -30.201880    1.410022    5.578540    2.369793    -3.300019    -2.575941    0.736768    16.155668    4.537780    14.319628    -7.983279    -13.564718    11.103540    2.971044    7.685460    -14.808363    -33.567566    11.258256    -41.057964    41.754856    -43.963898    -42.271873    -20.570463    -24.167421    -37.703590    -2.395154    2.268843    -1.486550    34.996532    10.507658    71.370804    0.306728    -12.914669    98.628708    13.358933    -10.937384    20.101856    18.618452    -35.562595    3.306979    -13.852684    23.236443    -10.574717    -5.655862    -0.763753    40.955761    0.000000    0.000000    0.000000    -11.873497    -7.329899    -7.217993    3.416450    12.425423    -5.852203    11.796214    -7.273578    -7.089868    0.000000    0.000000    0.000000    
28.197474    159.045059    -73.485420    3.478598    12.328615    -30.290123    1.476637    5.520486    2.365771    -3.226373    -2.548606    0.738716    16.163364    4.520989    14.321277    -8.081427    -13.251368    11.098391    2.911007    7.692775    -14.829064    -33.576115    11.205415    -40.953720    41.706123    -43.975571    -42.151505    -20.557096    -24.258032    -37.691402    -2.534986    2.220076    -1.466147    34.944187    10.462077    71.505951    0.523498    -12.898396    98.455795    13.539980    -11.136100    20.090477    18.621077    -35.247620    3.296184    -13.828413    23.163544    -10.557071    -5.725978    -0.759564    40.971420    0.000000    0.000000    0.000000    -11.892964    -7.230783    -7.123686    3.434862    12.696411    -5.701214    11.743718    -7.516778    -7.088443    0.000000    0.000000    0.000000    
28.084618    159.016129    -73.630295    3.411733    12.097082    -30.389568    1.550757    5.459947    2.367500    -3.205019    -2.578935    0.739893    16.201118    4.490564    14.340569    -8.095760    -12.906116    11.129939    2.893864    7.717175    -14.848382    -33.603771    11.212443    -40.857948    41.742062    -44.001640    -41.970020    -20.555904    -24.360374    -37.638691    -2.583187    2.089673    -1.458614    34.885735    10.466920    71.587227    0.782547    -12.802225    98.271851    13.645129    -11.317014    20.053461    18.635681    -34.973534    3.326504    -13.793184    23.103859    -10.545441    -5.790653    -0.743332    40.984032    0.000000    0.000000    0.000000    -11.910753    -7.177443    -7.105066    3.437293    12.974065    -5.505916    11.690100    -7.740457    -7.055707    0.000000    0.000000    0.000000    
27.988943    158.995026    -73.771706    3.361875    11.876749    -30.493788    1.651835    5.364716    2.329612    -3.209882    -2.557970    0.728957    16.232447    4.432789    14.407290    -8.127792    -12.544075    11.204556    2.876927    7.717566    -14.798832    -33.662758    11.160740    -40.771351    41.602600    -44.017807    -41.944698    -20.442053    -24.500084    -37.555511    -2.658242    2.055716    -1.419614    34.824326    10.394176    71.761627    1.000333    -12.727364    98.041656    13.721457    -11.471110    20.049404    18.627010    -34.710712    3.349365    -13.738552    23.024879    -10.546145    -5.852296    -0.710437    41.004356    0.000000    0.000000    0.000000    -11.918904    -7.146849    -7.108801    3.439388    13.230213    -5.321771    11.569812    -7.949229    -7.131061    0.000000    0.000000    0.000000    
